# xmcd CD database file
#
# Track frame offsets:
#	150
#	27340
#	49282
#	76472
#
# Disc length: 1312 seconds
#
# Revision: 0
# Processed by: cddbd v1.5PL3 Copyright (c) Steve Scherf et al.
# Submitted via: CDex 1.51
#
DISCID=2c051e04
DTITLE=TAEKO - ひまわり／大きな古時計　〜母の祈りから生まれた生命の讃歌〜
DYEAR=2002
DGENRE=Vocal
TTITLE0=ひまわり
TTITLE1=大きな古時計
TTITLE2=ひまわり　(music track)
TTITLE3=大きな古時計　(music track)
EXTD=YEAR: 2002
EXTT0=
EXTT1=
EXTT2=
EXTT3=
PLAYORDER=
